<svg id="Grupo_1073631" data-name="Grupo 1073631" xmlns="http://www.w3.org/2000/svg" xmlns:xlink="http://www.w3.org/1999/xlink" width="97" height="28.092" viewBox="0 0 97 28.092">
  <defs>
    <clipPath id="clip-path">
      <rect id="Rectángulo_382606" data-name="Rectángulo 382606" width="97" height="28.092" fill="#3ee2a8"/>
    </clipPath>
  </defs>
  <g id="Grupo_1073630" data-name="Grupo 1073630" clip-path="url(#clip-path)">
    <path id="Trazado_823641" data-name="Trazado 823641" d="M97,10.26l-1.624,1.624a11.112,11.112,0,0,1-15.715,0l-.977-.977a11.116,11.116,0,0,0-15.715,0,11.112,11.112,0,0,1-15.715,0l-.089-.089a11.116,11.116,0,0,0-15.715,0l-.8.8a11.112,11.112,0,0,1-15.715,0l-.62-.622A11.11,11.11,0,0,0,0,9.824v4.9a11.107,11.107,0,0,1,14.317,1.169l.62.622a11.112,11.112,0,0,0,15.715,0l.8-.8a11.112,11.112,0,0,1,15.715,0l.089.089a11.112,11.112,0,0,0,15.715,0,11.112,11.112,0,0,1,15.715,0l.977.977a11.112,11.112,0,0,0,15.715,0L97,15.153Z" transform="translate(0 8.061)" fill="#3ee2a8"/>
    <path id="Trazado_823642" data-name="Trazado 823642" d="M97,2.7,95.376,4.32a11.112,11.112,0,0,1-15.715,0l-.977-.977a11.112,11.112,0,0,0-15.715,0,11.112,11.112,0,0,1-15.715,0l-.089-.089a11.112,11.112,0,0,0-15.715,0l-.8.8a11.112,11.112,0,0,1-15.715,0l-.62-.622A11.11,11.11,0,0,0,0,2.261V7.154A11.11,11.11,0,0,1,14.317,8.325l.62.622a11.112,11.112,0,0,0,15.715,0l.8-.8a11.112,11.112,0,0,1,15.715,0l.089.089a11.112,11.112,0,0,0,15.715,0,11.112,11.112,0,0,1,15.715,0l.977.977a11.112,11.112,0,0,0,15.715,0L97,7.59Z" transform="translate(0 0)" fill="#3ee2a8"/>
  </g>
</svg>
