<svg id="documentation" xmlns="http://www.w3.org/2000/svg" width="81" height="73.505" viewBox="0 0 81 73.505">
  <g id="Grupo_1074428" data-name="Grupo 1074428" transform="translate(1.107 1.112)">
    <path id="Trazado_827311" data-name="Trazado 827311" d="M7.075,56.091,28.933,30.815a.323.323,0,0,1,.449-.032l32.373,28a.315.315,0,0,1,.032.449L39.929,84.507a.318.318,0,0,1-.445.032l-32.378-28a.324.324,0,0,1-.032-.449Z" transform="translate(-6.999 -30.708)" fill="#006694" fill-rule="evenodd"/>
    <path id="Trazado_827312" data-name="Trazado 827312" d="M95.112,78.921l15.259-6.958,24.916,21.548a.315.315,0,0,1,.032.449l-21.858,25.276a.318.318,0,0,1-.445.032l-1.554-1.343L94.469,80.65a1.305,1.305,0,0,1,.642-1.729Z" transform="translate(-80.532 -65.436)" fill="#005c85" fill-rule="evenodd"/>
    <path id="Trazado_827313" data-name="Trazado 827313" d="M100.785,47.712l30.4-13.862a.321.321,0,0,1,.422.157l17.756,38.945a.324.324,0,0,1-.157.422L118.8,87.237a.317.317,0,0,1-.418-.157L100.628,48.135a.318.318,0,0,1,.157-.422Z" transform="translate(-85.791 -33.329)" fill="#60b7ff" fill-rule="evenodd"/>
    <path id="Trazado_827314" data-name="Trazado 827314" d="M208.907,91.47h16.849l13.682,30.01a.324.324,0,0,1-.157.422l-30.406,13.862a.317.317,0,0,1-.418-.157l-.858-1.878V92.777a1.306,1.306,0,0,1,1.307-1.307Z" transform="translate(-175.865 -81.857)" fill="#56a5e6" fill-rule="evenodd"/>
    <path id="Trazado_827315" data-name="Trazado 827315" d="M214.167,97.717h24.881l8.849,8.849v34.269a.316.316,0,0,1-.314.319H214.167a.32.32,0,0,1-.319-.319v-42.8A.32.32,0,0,1,214.167,97.717Z" transform="translate(-181.125 -87.116)" fill="#eaf6ff" fill-rule="evenodd"/>
    <path id="Trazado_827316" data-name="Trazado 827316" d="M373.138,97.717v6.863a1.992,1.992,0,0,0,1.986,1.985h6.863Z" transform="translate(-315.215 -87.116)" fill="#bec7cf" fill-rule="evenodd"/>
    <path id="Trazado_827317" data-name="Trazado 827317" d="M130.272,240.066h26.116a5.013,5.013,0,0,1,4.995,5v20.514a5.01,5.01,0,0,1-4.995,4.995H110.095a5.007,5.007,0,0,1-4.995-4.995v-30.5a4.108,4.108,0,0,1,4.1-4.1h8.723c1.442,0,2.426.889,3.459,1.9l5.431,5.3c1.033,1.006,2.017,1.9,3.459,1.9Z" transform="translate(-89.58 -199.289)" fill="#ffba57" fill-rule="evenodd"/>
    <path id="Trazado_827318" data-name="Trazado 827318" d="M209.723,240.906a4.992,4.992,0,0,1,2.237,4.155v20.514a5.01,5.01,0,0,1-4.995,4.995h2.794a5.01,5.01,0,0,0,4.995-4.995V245.061a5,5,0,0,0-4.995-5h-2.794a4.936,4.936,0,0,1,2.758.84Zm-29.539-2.736-4.51-4.4-.921-.9c-1.033-1.006-2.017-1.9-3.459-1.9H168.5c1.442,0,2.426.889,3.459,1.9l3.715,3.629,1.717,1.675c1.033,1.006,2.017,1.9,3.459,1.9h2.794c-1.442,0-2.426-.889-3.459-1.9Z" transform="translate(-142.951 -199.289)" fill="#e6a74e" fill-rule="evenodd"/>
    <path id="Trazado_827319" data-name="Trazado 827319" d="M394.917,281.056a9.456,9.456,0,1,0-9.456-9.456A9.456,9.456,0,0,0,394.917,281.056Z" transform="translate(-325.589 -225.532)" fill="#25c73b" fill-rule="evenodd"/>
    <path id="Trazado_827320" data-name="Trazado 827320" d="M440.177,262.177a9.457,9.457,0,0,1,.481,18.794c-.162.022-.319.04-.481.054.157.013.319.022.481.027.1,0,.211,0,.319,0a9.456,9.456,0,1,0,0-18.911c-.269,0-.539.009-.8.032Z" transform="translate(-371.649 -225.532)" fill="#21b335" fill-rule="evenodd"/>
    <path id="Trazado_827321" data-name="Trazado 827321" d="M416.3,153.653v18.34a9.374,9.374,0,0,1,2.021-.826V153.653Z" transform="translate(-351.549 -134.203)" fill="#d3dde6" fill-rule="evenodd"/>
  </g>
  <path id="Trazado_827322" data-name="Trazado 827322" d="M38.231,43.1A1.107,1.107,0,0,1,39.339,42H53.984a1.107,1.107,0,1,1,0,2.215H39.339A1.107,1.107,0,0,1,38.231,43.1Zm1.107,6.5h23.13a1.107,1.107,0,1,0,0-2.215H39.339a1.107,1.107,0,0,0,0,2.215Zm23.13,3.17H39.339a1.107,1.107,0,0,0,0,2.215h23.13a1.107,1.107,0,1,0,0-2.215Zm0,5.385H39.339a1.107,1.107,0,0,0,0,2.215h23.13a1.107,1.107,0,1,0,0-2.215ZM74.024,80.828V91.09a6.1,6.1,0,0,1-6.094,6.093H21.716a6.1,6.1,0,0,1-6.094-6.093V64.516L.382,51.336a1.107,1.107,0,0,1-.113-1.562L22.506,24.061a1.107,1.107,0,0,1,1.562-.113l7.967,6.892L46.386,24.3a1.107,1.107,0,0,1,1.467.548l4.35,9.544h6.861a1.109,1.109,0,0,1,.783.324l8.834,8.834a1.107,1.107,0,0,1,.324.783V60.46a10.546,10.546,0,0,1,5.018,20.368ZM66.791,61.015V45.44H61.047a3.093,3.093,0,0,1-3.09-3.09V36.606H35.016V58.868l4.164,4.071c.944.923,1.688,1.577,2.678,1.577H62.067a10.594,10.594,0,0,1,4.724-3.5ZM60.172,42.351a.875.875,0,0,0,.874.874h4.178l-5.052-5.053ZM46.3,26.774l-13.929,6.35a1.117,1.117,0,0,1-.129.059L17.385,39.953l7.056,15.482h5.09A5.039,5.039,0,0,1,32.8,56.758V35.5a1.107,1.107,0,0,1,1.107-1.107H49.769ZM15.622,61.587v-.949a5.21,5.21,0,0,1,5.206-5.2h1.179l-7.1-15.572a1.107,1.107,0,0,1,.548-1.467l14.359-6.546-6.361-5.5L2.669,50.386ZM71.809,81.362A10.542,10.542,0,0,1,60.767,66.73H41.859a6.059,6.059,0,0,1-4.227-2.208l-4.468-4.368c-.02-.019-.04-.037-.059-.057l-.889-.87c-.977-.952-1.693-1.577-2.683-1.577h-8.7a2.992,2.992,0,0,0-2.991,2.987V91.09a3.883,3.883,0,0,0,3.879,3.879H67.93a3.883,3.883,0,0,0,3.879-3.879Zm6.973-10.456a8.332,8.332,0,1,0-8.332,8.332A8.332,8.332,0,0,0,78.782,70.906ZM76.09,66.719a1.107,1.107,0,0,0-1.566,0L68.5,72.743l-2.123-2.123a1.107,1.107,0,0,0-1.566,1.566l2.906,2.906a1.107,1.107,0,0,0,1.566,0l6.807-6.807A1.107,1.107,0,0,0,76.09,66.719ZM65.881,88.054H23.765a1.107,1.107,0,0,0,0,2.215H65.881a1.107,1.107,0,0,0,0-2.215ZM23.765,82.7h10.8a1.107,1.107,0,1,0,0-2.215h-10.8a1.107,1.107,0,0,0,0,2.215Z" transform="translate(0.001 -23.678)"/>
</svg>
