<svg id="Grupo_1073018" data-name="Grupo 1073018" xmlns="http://www.w3.org/2000/svg" width="70" height="23.091" viewBox="0 0 70 23.091">
  <g id="Grupo_1072927" data-name="Grupo 1072927">
    <path id="Trazado_818457" data-name="Trazado 818457" d="M70,9.78l-1.172,1.334a7.347,7.347,0,0,1-11.341,0l-.705-.8a7.349,7.349,0,0,0-11.341,0,7.347,7.347,0,0,1-11.341,0l-.064-.073a7.349,7.349,0,0,0-11.341,0l-.577.657a7.347,7.347,0,0,1-11.341,0l-.447-.511A7.3,7.3,0,0,0,0,9.421v4.024a7.3,7.3,0,0,1,10.332.961l.447.511a7.347,7.347,0,0,0,11.341,0l.577-.657a7.347,7.347,0,0,1,11.341,0l.064.073a7.347,7.347,0,0,0,11.341,0,7.347,7.347,0,0,1,11.341,0l.705.8a7.347,7.347,0,0,0,11.341,0L70,13.8Z" transform="translate(0 5.279)" fill="#7681b0"/>
    <path id="Trazado_818458" data-name="Trazado 818458" d="M70,2.216,68.828,3.551a7.347,7.347,0,0,1-11.341,0l-.705-.8a7.347,7.347,0,0,0-11.341,0,7.347,7.347,0,0,1-11.341,0l-.064-.073a7.347,7.347,0,0,0-11.341,0l-.577.657a7.347,7.347,0,0,1-11.341,0l-.447-.511A7.3,7.3,0,0,0,0,1.858V5.88a7.3,7.3,0,0,1,10.332.963l.447.511a7.347,7.347,0,0,0,11.341,0L22.7,6.7a7.347,7.347,0,0,1,11.341,0l.064.073a7.347,7.347,0,0,0,11.341,0,7.347,7.347,0,0,1,11.341,0l.705.8a7.347,7.347,0,0,0,11.341,0L70,6.238Z" transform="translate(0 0.001)" fill="#7681b0"/>
  </g>
</svg>
